<?xml version="1.0" encoding="utf-8"?>
<!-- Generator: Adobe Illustrator 15.1.0, SVG Export Plug-In . SVG Version: 6.00 Build 0)  -->
<!DOCTYPE svg PUBLIC "-//W3C//DTD SVG 1.1//EN" "http://www.w3.org/Graphics/SVG/1.1/DTD/svg11.dtd">
<svg version="1.1" id="Logo" xmlns="http://www.w3.org/2000/svg" xmlns:xlink="http://www.w3.org/1999/xlink" x="0px" y="0px"
	 width="850.394px" height="566.93px" viewBox="0 0 850.394 566.93" enable-background="new 0 0 850.394 566.93"
	 xml:space="preserve">
<g>
	<polygon fill="#F1F2F2" points="425.196,366.653 170.079,239.095 170.079,288.701 425.196,416.26 425.196,416.26 425.196,416.26 
		425.197,416.26 425.197,416.26 	"/>
	<polygon fill="#F1F2F2" points="425.134,465.841 104.252,304.951 104.252,354.558 425.134,515.447 425.134,515.447 
		425.134,515.447 425.135,515.447 425.135,515.447 	"/>
	<polygon fill="#F1F2F2" points="425.196,317.047 425.196,317.047 425.197,317.047 425.197,317.047 425.196,267.441 
		235.732,173.095 235.732,222.701 425.196,317.047 	"/>
	<polygon fill="#F1F2F2" points="425.197,46.383 425.197,46.383 425.197,46.383 425.197,46.383 425.197,95.989 301.732,156.836 
		301.732,107.229 425.197,46.383 	"/>
	<polygon fill="#F1F2F2" points="425.196,217.835 425.196,217.835 425.197,217.835 425.197,217.835 425.196,168.229 
		301.732,107.382 301.732,156.989 425.196,217.835 	"/>
</g>
<g>
	<polygon fill="#FFFFFF" points="425.238,366.653 680.357,239.095 680.357,288.701 425.238,416.26 425.238,416.26 425.238,416.26 
		425.238,416.26 425.238,416.26 	"/>
	<polygon fill="#FFFFFF" points="425.259,465.841 746.141,304.951 746.141,354.558 425.259,515.447 425.259,515.447 
		425.259,515.447 425.259,515.447 425.259,515.447 	"/>
	<polygon fill="#FFFFFF" points="425.218,317.047 425.218,317.047 425.218,317.047 425.218,317.047 425.218,267.441 
		614.682,173.095 614.682,222.701 425.218,317.047 	"/>
	<polygon fill="#F1F2F2" points="425.197,46.383 425.197,46.383 425.197,46.383 425.197,46.383 425.197,95.989 548.662,156.836 
		548.662,107.229 425.197,46.383 	"/>
	<polygon fill="#FFFFFF" points="425.197,217.835 425.197,217.835 425.197,217.835 425.197,217.835 425.197,168.229 
		548.662,107.382 548.662,156.989 425.197,217.835 	"/>
</g>
</svg>
