<?xml version="1.0" encoding="UTF-8" standalone="no"?>
<!-- Generator: Adobe Illustrator 15.1.0, SVG Export Plug-In . SVG Version: 6.00 Build 0)  -->

<svg
   version="1.1"
   id="Logo"
   x="0px"
   y="0px"
   width="850.394px"
   height="566.93px"
   viewBox="0 0 850.394 566.93"
   enable-background="new 0 0 850.394 566.93"
   xml:space="preserve"
   sodipodi:docname="x logo.svg"
   inkscape:version="1.3.2 (091e20ef0f, 2023-11-25, custom)"
   xmlns:inkscape="http://www.inkscape.org/namespaces/inkscape"
   xmlns:sodipodi="http://sodipodi.sourceforge.net/DTD/sodipodi-0.dtd"
   xmlns="http://www.w3.org/2000/svg"
   xmlns:svg="http://www.w3.org/2000/svg"><defs
   id="defs10" /><sodipodi:namedview
   id="namedview10"
   pagecolor="#ffffff"
   bordercolor="#cccccc"
   borderopacity="1"
   inkscape:showpageshadow="0"
   inkscape:pageopacity="1"
   inkscape:pagecheckerboard="0"
   inkscape:deskcolor="#d1d1d1"
   inkscape:zoom="0.42905654"
   inkscape:cx="118.86545"
   inkscape:cy="490.61133"
   inkscape:window-width="1920"
   inkscape:window-height="1011"
   inkscape:window-x="0"
   inkscape:window-y="0"
   inkscape:window-maximized="1"
   inkscape:current-layer="Logo" />


<rect
   style="fill:#000000;stroke-width:1.83277"
   id="rect10"
   width="500"
   height="500"
   x="173.47662"
   y="39.546764" /><g
   id="g11"
   transform="matrix(0.55384663,0,0,0.53653535,186.64641,134.89999)"><g
     id="g5">
	<polygon
   fill="#f1f2f2"
   points="170.079,288.701 425.196,416.26 425.197,416.26 425.196,366.653 170.079,239.095 "
   id="polygon1" />
	<polygon
   fill="#f1f2f2"
   points="104.252,354.558 425.134,515.447 425.135,515.447 425.134,465.841 104.252,304.951 "
   id="polygon2" />
	<polygon
   fill="#f1f2f2"
   points="235.732,173.095 235.732,222.701 425.196,317.047 425.197,317.047 425.196,267.441 "
   id="polygon3" />
	<polygon
   fill="#f1f2f2"
   points="425.197,95.989 301.732,156.836 301.732,107.229 425.197,46.383 "
   id="polygon4" />
	<polygon
   fill="#f1f2f2"
   points="301.732,107.382 301.732,156.989 425.196,217.835 425.197,217.835 425.196,168.229 "
   id="polygon5" />
</g><g
     id="g10">
	<polygon
   fill="#ffffff"
   points="425.238,366.653 680.357,239.095 680.357,288.701 425.238,416.26 "
   id="polygon6" />
	<polygon
   fill="#ffffff"
   points="425.259,465.841 746.141,304.951 746.141,354.558 425.259,515.447 "
   id="polygon7" />
	<polygon
   fill="#ffffff"
   points="425.218,267.441 614.682,173.095 614.682,222.701 425.218,317.047 "
   id="polygon8" />
	<polygon
   fill="#f1f2f2"
   points="425.197,95.989 548.662,156.836 548.662,107.229 425.197,46.383 "
   id="polygon9" />
	<polygon
   fill="#ffffff"
   points="425.197,168.229 548.662,107.382 548.662,156.989 425.197,217.835 "
   id="polygon10" />
</g></g></svg>
